<svg xmlns="http://www.w3.org/2000/svg" xmlns:xlink="http://www.w3.org/1999/xlink" width="800" height="521.04"><rect width="800" height="521.04" rx="0" ry="0" class="a"/><svg height="521.04" viewBox="0 0 80 52.104" width="800" xmlns="http://www.w3.org/2000/svg" xmlns:xlink="http://www.w3.org/1999/xlink"><style>@keyframes m{0%{transform:translateX(0)}4.76%{transform:translateX(-80px)}13.18%{transform:translateX(-160px)}17.83%{transform:translateX(-400px)}25.74%{transform:translateX(-480px)}30.3%{transform:translateX(-640px)}38.7%{transform:translateX(-720px)}43.31%{transform:translateX(-800px)}51.65%{transform:translateX(-880px)}56.37%{transform:translateX(-1680px)}64.51%{transform:translateX(-1760px)}64.53%{transform:translateX(-1840px)}69.82%{transform:translateX(-2240px)}69.83%{transform:translateX(-2320px)}80.41%{transform:translateX(-2400px)}85.02%{transform:translateX(-2480px)}95.77%{transform:translateX(-2560px)}to{transform:translateX(-2640px)}}.a{fill:#282d35}.d,.e{fill:#b9c0cb;white-space:pre}.e{fill:#1d1d1f}.e,.f{font-weight:700}.f,.g,.h,.i,.j,.o{fill:#fff;white-space:pre}.h,.i,.j,.o{fill:#888}.i,.j,.o{fill:#444}.j,.o{fill:#aaa}.o{fill:#e8e8e8;font-weight:700}.q,.r,.s,.t,.u{fill:#a0a0a0;white-space:pre}.r,.s,.t,.u{fill:#585858}.s,.t,.u{fill:#e8e8e8}.t,.u{fill:#ff9e64}.u{fill:#7dc4e4}.A,.v,.w,.x,.y,.z{fill:#007aff;white-space:pre}.A,.w,.x,.y,.z{fill:#86868b}.A,.x,.y,.z{fill:#c7c7cc}.A,.y,.z{fill:#1d1d1f}.A,.z{fill:#ff6b35}.A{fill:#f5f5f7;font-weight:700}.C,.D,.E,.F,.G{fill:#98989d;white-space:pre}.D,.E,.F,.G{fill:#48484a}.E,.F,.G{fill:#f5f5f7}.F,.G{fill:#ff9f4a}.G{fill:#64b5f6}</style><g font-family="Monaco,Consolas,Menlo,'Bitstream Vera Sans Mono','Powerline Symbols',monospace" font-size="1.67"><defs><symbol id="1"><text x="2.004" y="1.67" style="white-space:pre" fill="#e88388">✖</text><text x="4.008" y="1.67" class="d">Unable</text><text x="11.022" y="1.67" class="d">to</text><text x="14.028" y="1.67" class="d">connect</text><text x="22.044" y="1.67" class="d">to</text><text x="25.05" y="1.67" class="d">weather</text><text x="33.066" y="1.67" class="d">service.</text><text x="42.084" y="1.67" class="d">Check</text><text x="48.096" y="1.67" class="d">your</text><text x="53.106" y="1.67" class="d">internet</text><text x="62.124" y="1.67" class="d">connection.</text></symbol><symbol id="2"><text x="2.004" y="1.67" class="d">🇯🇵</text><text x="7.014" y="1.67" class="e">Tokyo,</text><text x="14.028" y="1.67" class="e">Tokyo</text><text x="19.038" y="1.67" class="d">,</text><text x="21.042" y="1.67" class="d">Japan</text></symbol><symbol id="3"><text x="2.004" y="1.67" class="d">🇯🇵</text><text x="7.014" y="1.67" class="f">Tokyo,</text><text x="14.028" y="1.67" class="f">Tokyo</text><text x="19.038" y="1.67" class="d">,</text><text x="21.042" y="1.67" class="d">Japan</text></symbol><symbol id="4"><text x="2.004" y="1.67" class="g">⛅</text><text x="5.01" y="1.67" class="f">17°</text><text x="10.02" y="1.67" class="h">·</text><text x="13.026" y="1.67" class="h">Partly</text><text x="20.04" y="1.67" class="h">cloudy</text><text x="28.056" y="1.67" class="i">Feels</text><text x="34.068" y="1.67" class="i">like</text><text x="39.078" y="1.67" class="i">19°</text></symbol><symbol id="5"><text x="2.004" y="1.67" class="i">──</text><text x="6.012" y="1.67" class="i">2-Day</text><text x="12.024" y="1.67" class="i">Forecast</text><text x="22.044" y="1.67" class="i">─────────────────────────────────</text></symbol><symbol id="6"><text x="2.004" y="1.67" class="g">Tue</text><text x="6.012" y="1.67" class="g">26</text><text x="10.02" y="1.67" class="d">☁️</text><text x="14.028" y="1.67" class="g">26°</text><text x="17.034" y="1.67" class="d">/</text><text x="18.036" y="1.67" class="j">17°</text><text x="23.046" y="1.67" class="h">←</text><text x="25.05" y="1.67" class="h">7</text><text x="27.054" y="1.67" class="h">km/h</text><text x="33.066" y="1.67" class="i">💧2%</text></symbol><symbol id="7"><text x="2.004" y="1.67" class="i">──</text><text x="6.012" y="1.67" class="i">Details</text><text x="15.03" y="1.67" class="i">──────────────────────────────────</text></symbol><symbol id="8"><text x="2.004" y="1.67" class="i">────────────────────────────────────────────</text></symbol><symbol id="9"><text y="1.67" class="d">weather</text><text x="8.016" y="1.67" class="d">Tokyo</text><text x="14.028" y="1.67" class="d">-j</text><text x="17.034" y="1.67" class="d">|</text><text x="19.038" y="1.67" class="d">jq</text><text x="22.044" y="1.67" class="d">&apos;.current.temperature&apos;</text></symbol><symbol id="10"><text y="1.67" class="d">{</text></symbol><symbol id="11"><text x="4.008" y="1.67" class="d">&quot;location&quot;:</text><text x="16.032" y="1.67" class="d">{</text></symbol><symbol id="12"><text x="8.016" y="1.67" class="d">&quot;name&quot;:</text><text x="16.032" y="1.67" class="d">&quot;Tokyo&quot;,</text></symbol><symbol id="13"><text x="8.016" y="1.67" class="d">&quot;country&quot;:</text><text x="19.038" y="1.67" class="d">&quot;Japan&quot;,</text></symbol><symbol id="14"><text x="8.016" y="1.67" class="d">&quot;countryCode&quot;:</text><text x="23.046" y="1.67" class="d">&quot;JP&quot;,</text></symbol><symbol id="a"><path fill="transparent" d="M0 0h80v24H0z"/></symbol><symbol id="b"><path fill="#6f7683" d="M0 0h1.102v2.171H0z"/></symbol></defs><path class="a" d="M0 0h80v52.104H0z"/><g style="animation-duration:19.245316s;animation-iteration-count:infinite;animation-name:m;animation-timing-function:steps(1,end)"><svg width="2720"><svg><use xlink:href="#a"/><use xlink:href="#b" x="-.004"/></svg><svg x="80"><use xlink:href="#a"/><use xlink:href="#b" x="-.004" y="41.224"/><text x="2.004" y="3.841" class="d">🇯🇵</text><text x="7.014" y="3.841" class="o">Tokyo,</text><text x="14.028" y="3.841" class="o">Tokyo</text><text x="19.038" y="3.841" class="d">,</text><text x="21.042" y="3.841" class="d">Japan</text><text x="2.004" y="8.183" style="white-space:pre" fill="#d4a5f5">⛅</text><text x="5.01" y="8.183" class="o">17°</text><text x="10.02" y="8.183" class="q">·</text><text x="13.026" y="8.183" class="q">Partly</text><text x="20.04" y="8.183" class="q">cloudy</text><text x="28.056" y="8.183" class="r">Feels</text><text x="34.068" y="8.183" class="r">like</text><text x="39.078" y="8.183" class="r">19°</text><text x="2.004" y="12.525" class="r">──</text><text x="6.012" y="12.525" class="r">2-Day</text><text x="12.024" y="12.525" class="r">Forecast</text><text x="22.044" y="12.525" class="r">─────────────────────────────────</text><text x="2.004" y="14.696" class="s">Tue</text><text x="6.012" y="14.696" class="s">26</text><text x="10.02" y="14.696" class="d">☁️</text><text x="14.028" y="14.696" class="t">26°</text><text x="17.034" y="14.696" class="d">/</text><text x="18.036" y="14.696" class="u">17°</text><text x="23.046" y="14.696" class="q">←</text><text x="25.05" y="14.696" class="q">7</text><text x="27.054" y="14.696" class="q">km/h</text><text x="33.066" y="14.696" class="r">💧2%</text><text x="2.004" y="16.867" class="s">Wed</text><text x="6.012" y="16.867" class="s">27</text><text x="10.02" y="16.867" class="d">⛅</text><text x="13.026" y="16.867" class="t">27°</text><text x="16.032" y="16.867" class="d">/</text><text x="17.034" y="16.867" class="u">19°</text><text x="22.044" y="16.867" class="q">←</text><text x="24.048" y="16.867" class="q">7</text><text x="26.052" y="16.867" class="q">km/h</text><text x="32.064" y="16.867" class="r">💧31%</text><text x="2.004" y="21.209" class="r">──</text><text x="6.012" y="21.209" class="r">Details</text><text x="15.03" y="21.209" class="r">──────────────────────────────────</text><text x="2.004" y="23.38" class="r">Humidity</text><text x="12.024" y="23.38" class="s">98%</text><text x="17.034" y="23.38" class="r">Wind</text><text x="27.054" y="23.38" class="q">↓</text><text x="29.058" y="23.38" class="s">3</text><text x="31.062" y="23.38" class="s">km/h</text><text x="2.004" y="25.551" class="r">Cloud</text><text x="12.024" y="25.551" class="s">77%</text><text x="17.034" y="25.551" class="r">Gusts</text><text x="27.054" y="25.551" class="q">↓</text><text x="29.058" y="25.551" class="s">8</text><text x="31.062" y="25.551" class="s">km/h</text><text x="2.004" y="27.722" class="r">Pressure</text><text x="12.024" y="27.722" class="s">1015</text><text x="17.034" y="27.722" class="s">hPa</text><text x="22.044" y="27.722" class="r">UV</text><text x="25.05" y="27.722" class="r">Index</text><text x="32.064" y="27.722" class="s">0</text><text x="2.004" y="29.893" class="r">Precip</text><text x="12.024" y="29.893" class="d">💧</text><text x="15.03" y="29.893" class="s">0</text><text x="18.036" y="29.893" class="r">Sunrise</text><text x="28.056" y="29.893" class="s">04:29</text><text x="14.028" y="32.064" class="r">Sunset</text><text x="24.048" y="32.064" class="s">18:47</text><text x="2.004" y="36.406" class="r">────────────────────────────────────────────</text><text x="2.004" y="38.577" class="r">Updated</text><text x="10.02" y="38.577" class="r">03:15</text><text x="16.032" y="38.577" class="r">·</text><text x="18.036" y="38.577" class="r">0.2ms</text><text x="24.048" y="38.577" class="r">·</text><text x="26.052" y="38.577" class="r">data</text><text x="31.062" y="38.577" class="r">from</text><text x="36.072" y="38.577" class="r">Open-Meteo</text></svg><svg x="160"><use xlink:href="#a"/><use xlink:href="#b" x="-.004"/></svg><svg x="240"><use xlink:href="#a"/><use xlink:href="#b" x="72.996" y="2.146"/><use xlink:href="#1" y="2.171"/></svg><svg x="320"><use xlink:href="#a"/><use xlink:href="#b" x="-.004" y="4.317"/><use xlink:href="#1" y="2.171"/></svg><svg x="400"><use xlink:href="#a"/><use xlink:href="#b" x="-.004" y="6.488"/><use xlink:href="#1" y="2.171"/></svg><svg x="480"><use xlink:href="#a"/><use xlink:href="#b" x="-.004"/></svg><svg x="560"><use xlink:href="#a"/><use xlink:href="#b" x="-.004" y="4.317"/><use xlink:href="#2" y="2.171"/></svg><svg x="640"><use xlink:href="#a"/><use xlink:href="#b" x="-.004" y="41.224"/><use xlink:href="#2" y="2.171"/><text x="2.004" y="8.183" class="v">⛅</text><text x="5.01" y="8.183" class="e">17°</text><text x="10.02" y="8.183" class="w">·</text><text x="13.026" y="8.183" class="w">Partly</text><text x="20.04" y="8.183" class="w">cloudy</text><text x="28.056" y="8.183" class="x">Feels</text><text x="34.068" y="8.183" class="x">like</text><text x="39.078" y="8.183" class="x">19°</text><text x="2.004" y="12.525" class="x">──</text><text x="6.012" y="12.525" class="x">2-Day</text><text x="12.024" y="12.525" class="x">Forecast</text><text x="22.044" y="12.525" class="x">─────────────────────────────────</text><text x="2.004" y="14.696" class="y">Tue</text><text x="6.012" y="14.696" class="y">26</text><text x="10.02" y="14.696" class="d">☁️</text><text x="14.028" y="14.696" class="z">26°</text><text x="17.034" y="14.696" class="d">/</text><text x="18.036" y="14.696" class="v">17°</text><text x="23.046" y="14.696" class="w">←</text><text x="25.05" y="14.696" class="w">7</text><text x="27.054" y="14.696" class="w">km/h</text><text x="33.066" y="14.696" class="x">💧2%</text><text x="2.004" y="16.867" class="y">Wed</text><text x="6.012" y="16.867" class="y">27</text><text x="10.02" y="16.867" class="d">⛅</text><text x="13.026" y="16.867" class="z">27°</text><text x="16.032" y="16.867" class="d">/</text><text x="17.034" y="16.867" class="v">19°</text><text x="22.044" y="16.867" class="w">←</text><text x="24.048" y="16.867" class="w">7</text><text x="26.052" y="16.867" class="w">km/h</text><text x="32.064" y="16.867" class="x">💧31%</text><text x="2.004" y="21.209" class="x">──</text><text x="6.012" y="21.209" class="x">Details</text><text x="15.03" y="21.209" class="x">──────────────────────────────────</text><text x="2.004" y="23.38" class="x">Humidity</text><text x="12.024" y="23.38" class="y">98%</text><text x="17.034" y="23.38" class="x">Wind</text><text x="27.054" y="23.38" class="w">↓</text><text x="29.058" y="23.38" class="y">3</text><text x="31.062" y="23.38" class="y">km/h</text><text x="2.004" y="25.551" class="x">Cloud</text><text x="12.024" y="25.551" class="y">77%</text><text x="17.034" y="25.551" class="x">Gusts</text><text x="27.054" y="25.551" class="w">↓</text><text x="29.058" y="25.551" class="y">8</text><text x="31.062" y="25.551" class="y">km/h</text><text x="2.004" y="27.722" class="x">Pressure</text><text x="12.024" y="27.722" class="y">1015</text><text x="17.034" y="27.722" class="y">hPa</text><text x="22.044" y="27.722" class="x">UV</text><text x="25.05" y="27.722" class="x">Index</text><text x="32.064" y="27.722" class="y">0</text><text x="2.004" y="29.893" class="x">Precip</text><text x="12.024" y="29.893" class="d">💧</text><text x="15.03" y="29.893" class="y">0</text><text x="18.036" y="29.893" class="x">Sunrise</text><text x="28.056" y="29.893" class="y">04:29</text><text x="14.028" y="32.064" class="x">Sunset</text><text x="24.048" y="32.064" class="y">18:47</text><text x="2.004" y="36.406" class="x">────────────────────────────────────────────</text><text x="2.004" y="38.577" class="x">Updated</text><text x="10.02" y="38.577" class="x">03:15</text><text x="16.032" y="38.577" class="x">·</text><text x="18.036" y="38.577" class="x">0.3ms</text><text x="24.048" y="38.577" class="x">·</text><text x="26.052" y="38.577" class="x">data</text><text x="31.062" y="38.577" class="x">from</text><text x="36.072" y="38.577" class="x">Open-Meteo</text></svg><svg x="720"><use xlink:href="#a"/><use xlink:href="#b" x="-.004"/></svg><svg x="800"><use xlink:href="#a"/><use xlink:href="#b" x="-.004" y="41.224"/><text x="2.004" y="3.841" class="d">🇯🇵</text><text x="7.014" y="3.841" class="A">Tokyo,</text><text x="14.028" y="3.841" class="A">Tokyo</text><text x="19.038" y="3.841" class="d">,</text><text x="21.042" y="3.841" class="d">Japan</text><text x="2.004" y="8.183" style="white-space:pre" fill="#0a84ff">⛅</text><text x="5.01" y="8.183" class="A">17°</text><text x="10.02" y="8.183" class="C">·</text><text x="13.026" y="8.183" class="C">Partly</text><text x="20.04" y="8.183" class="C">cloudy</text><text x="28.056" y="8.183" class="D">Feels</text><text x="34.068" y="8.183" class="D">like</text><text x="39.078" y="8.183" class="D">19°</text><text x="2.004" y="12.525" class="D">──</text><text x="6.012" y="12.525" class="D">2-Day</text><text x="12.024" y="12.525" class="D">Forecast</text><text x="22.044" y="12.525" class="D">─────────────────────────────────</text><text x="2.004" y="14.696" class="E">Tue</text><text x="6.012" y="14.696" class="E">26</text><text x="10.02" y="14.696" class="d">☁️</text><text x="14.028" y="14.696" class="F">26°</text><text x="17.034" y="14.696" class="d">/</text><text x="18.036" y="14.696" class="G">17°</text><text x="23.046" y="14.696" class="C">←</text><text x="25.05" y="14.696" class="C">7</text><text x="27.054" y="14.696" class="C">km/h</text><text x="33.066" y="14.696" class="D">💧2%</text><text x="2.004" y="16.867" class="E">Wed</text><text x="6.012" y="16.867" class="E">27</text><text x="10.02" y="16.867" class="d">⛅</text><text x="13.026" y="16.867" class="F">27°</text><text x="16.032" y="16.867" class="d">/</text><text x="17.034" y="16.867" class="G">19°</text><text x="22.044" y="16.867" class="C">←</text><text x="24.048" y="16.867" class="C">7</text><text x="26.052" y="16.867" class="C">km/h</text><text x="32.064" y="16.867" class="D">💧31%</text><text x="2.004" y="21.209" class="D">──</text><text x="6.012" y="21.209" class="D">Details</text><text x="15.03" y="21.209" class="D">──────────────────────────────────</text><text x="2.004" y="23.38" class="D">Humidity</text><text x="12.024" y="23.38" class="E">98%</text><text x="17.034" y="23.38" class="D">Wind</text><text x="27.054" y="23.38" class="C">↓</text><text x="29.058" y="23.38" class="E">3</text><text x="31.062" y="23.38" class="E">km/h</text><text x="2.004" y="25.551" class="D">Cloud</text><text x="12.024" y="25.551" class="E">77%</text><text x="17.034" y="25.551" class="D">Gusts</text><text x="27.054" y="25.551" class="C">↓</text><text x="29.058" y="25.551" class="E">8</text><text x="31.062" y="25.551" class="E">km/h</text><text x="2.004" y="27.722" class="D">Pressure</text><text x="12.024" y="27.722" class="E">1015</text><text x="17.034" y="27.722" class="E">hPa</text><text x="22.044" y="27.722" class="D">UV</text><text x="25.05" y="27.722" class="D">Index</text><text x="32.064" y="27.722" class="E">0</text><text x="2.004" y="29.893" class="D">Precip</text><text x="12.024" y="29.893" class="d">💧</text><text x="15.03" y="29.893" class="E">0</text><text x="18.036" y="29.893" class="D">Sunrise</text><text x="28.056" y="29.893" class="E">04:29</text><text x="14.028" y="32.064" class="D">Sunset</text><text x="24.048" y="32.064" class="E">18:47</text><text x="2.004" y="36.406" class="D">────────────────────────────────────────────</text><text x="2.004" y="38.577" class="D">Updated</text><text x="10.02" y="38.577" class="D">03:15</text><text x="16.032" y="38.577" class="D">·</text><text x="18.036" y="38.577" class="D">0.4ms</text><text x="24.048" y="38.577" class="D">·</text><text x="26.052" y="38.577" class="D">data</text><text x="31.062" y="38.577" class="D">from</text><text x="36.072" y="38.577" class="D">Open-Meteo</text></svg><svg x="880"><use xlink:href="#a"/><use xlink:href="#b" x="-.004"/></svg><svg x="960"><use xlink:href="#a"/><use xlink:href="#b" x="25.996" y="2.146"/><use xlink:href="#3" y="2.171"/></svg><svg x="1040"><use xlink:href="#a"/><use xlink:href="#b" x="-.004" y="4.317"/><use xlink:href="#3" y="2.171"/></svg><svg x="1120"><use xlink:href="#a"/><use xlink:href="#b" x="-.004" y="6.488"/><use xlink:href="#3" y="2.171"/></svg><svg x="1200"><use xlink:href="#a"/><use xlink:href="#b" x="41.996" y="6.488"/><use xlink:href="#3" y="2.171"/><use xlink:href="#4" y="6.513"/></svg><svg x="1280"><use xlink:href="#a"/><use xlink:href="#b" x="-.004" y="8.659"/><use xlink:href="#3" y="2.171"/><use xlink:href="#4" y="6.513"/></svg><svg x="1360"><use xlink:href="#a"/><use xlink:href="#b" x="-.004" y="10.83"/><use xlink:href="#3" y="2.171"/><use xlink:href="#4" y="6.513"/></svg><svg x="1440"><use xlink:href="#a"/><use xlink:href="#b" x="54.996" y="10.83"/><use xlink:href="#3" y="2.171"/><use xlink:href="#4" y="6.513"/><use xlink:href="#5" y="10.855"/></svg><svg x="1520"><use xlink:href="#a"/><use xlink:href="#b" x="-.004" y="13.001"/><use xlink:href="#3" y="2.171"/><use xlink:href="#4" y="6.513"/><use xlink:href="#5" y="10.855"/></svg><svg x="1600"><use xlink:href="#a"/><use xlink:href="#b" x="36.996" y="13.001"/><use xlink:href="#3" y="2.171"/><use xlink:href="#4" y="6.513"/><use xlink:href="#5" y="10.855"/><use xlink:href="#6" y="13.026"/></svg><svg x="1680"><use xlink:href="#a"/><use xlink:href="#b" x="-.004" y="41.224"/><use xlink:href="#3" y="2.171"/><use xlink:href="#4" y="6.513"/><use xlink:href="#5" y="10.855"/><use xlink:href="#6" y="13.026"/><text x="2.004" y="16.867" class="g">Wed</text><text x="6.012" y="16.867" class="g">27</text><text x="10.02" y="16.867" class="d">⛅</text><text x="13.026" y="16.867" class="g">27°</text><text x="16.032" y="16.867" class="d">/</text><text x="17.034" y="16.867" class="j">19°</text><text x="22.044" y="16.867" class="h">←</text><text x="24.048" y="16.867" class="h">7</text><text x="26.052" y="16.867" class="h">km/h</text><text x="32.064" y="16.867" class="i">💧31%</text><use xlink:href="#7" y="19.539"/><text x="2.004" y="23.38" class="i">Humidity</text><text x="12.024" y="23.38" class="g">98%</text><text x="17.034" y="23.38" class="i">Wind</text><text x="27.054" y="23.38" class="h">↓</text><text x="29.058" y="23.38" class="g">3</text><text x="31.062" y="23.38" class="g">km/h</text><text x="2.004" y="25.551" class="i">Cloud</text><text x="12.024" y="25.551" class="g">77%</text><text x="17.034" y="25.551" class="i">Gusts</text><text x="27.054" y="25.551" class="h">↓</text><text x="29.058" y="25.551" class="g">8</text><text x="31.062" y="25.551" class="g">km/h</text><text x="2.004" y="27.722" class="i">Pressure</text><text x="12.024" y="27.722" class="g">1015</text><text x="17.034" y="27.722" class="g">hPa</text><text x="22.044" y="27.722" class="i">UV</text><text x="25.05" y="27.722" class="i">Index</text><text x="32.064" y="27.722" class="g">0</text><text x="2.004" y="29.893" class="i">Precip</text><text x="12.024" y="29.893" class="d">💧</text><text x="15.03" y="29.893" class="g">0</text><text x="18.036" y="29.893" class="i">Sunrise</text><text x="28.056" y="29.893" class="g">04:29</text><text x="14.028" y="32.064" class="i">Sunset</text><text x="24.048" y="32.064" class="g">18:47</text><use xlink:href="#8" y="34.736"/><text x="2.004" y="38.577" class="i">Updated</text><text x="10.02" y="38.577" class="i">03:15</text><text x="16.032" y="38.577" class="i">·</text><text x="18.036" y="38.577" class="i">0.3ms</text><text x="24.048" y="38.577" class="i">·</text><text x="26.052" y="38.577" class="i">data</text><text x="31.062" y="38.577" class="i">from</text><text x="36.072" y="38.577" class="i">Open-Meteo</text></svg><svg x="1760"><use xlink:href="#a"/><use xlink:href="#b" x="-.004"/></svg><svg x="1840"><use xlink:href="#a"/><use xlink:href="#b" x="-.004" y="2.146"/><use xlink:href="#9"/></svg><svg x="1920"><use xlink:href="#a"/><use xlink:href="#b" x="-.004" y="4.317"/><use xlink:href="#9"/><use xlink:href="#10" y="2.171"/></svg><svg x="2000"><use xlink:href="#a"/><use xlink:href="#b" x="-.004" y="6.488"/><use xlink:href="#9"/><use xlink:href="#10" y="2.171"/><use xlink:href="#11" y="4.342"/></svg><svg x="2080"><use xlink:href="#a"/><use xlink:href="#b" x="-.004" y="8.659"/><use xlink:href="#9"/><use xlink:href="#10" y="2.171"/><use xlink:href="#11" y="4.342"/><use xlink:href="#12" y="6.513"/></svg><svg x="2160"><use xlink:href="#a"/><use xlink:href="#b" x="-.004" y="10.83"/><use xlink:href="#9"/><use xlink:href="#10" y="2.171"/><use xlink:href="#11" y="4.342"/><use xlink:href="#12" y="6.513"/><use xlink:href="#13" y="8.684"/></svg><svg x="2240"><use xlink:href="#a"/><use xlink:href="#b" x="-.004" y="13.001"/><use xlink:href="#9"/><use xlink:href="#10" y="2.171"/><use xlink:href="#11" y="4.342"/><use xlink:href="#12" y="6.513"/><use xlink:href="#13" y="8.684"/><use xlink:href="#14" y="10.855"/></svg><svg x="2320"><use xlink:href="#a"/><use xlink:href="#b" x="-.004" y="34.711"/><use xlink:href="#9"/><use xlink:href="#10" y="2.171"/><use xlink:href="#11" y="4.342"/><use xlink:href="#12" y="6.513"/><use xlink:href="#13" y="8.684"/><use xlink:href="#14" y="10.855"/><text x="8.016" y="14.696" class="d">&quot;admin1&quot;:</text><text x="18.036" y="14.696" class="d">&quot;Tokyo&quot;,</text><text x="8.016" y="16.867" class="d">&quot;timezone&quot;:</text><text x="20.04" y="16.867" class="d">&quot;Asia/Tokyo&quot;</text><text x="4.008" y="19.038" class="d">},</text><text x="4.008" y="21.209" class="d">&quot;current&quot;:</text><text x="15.03" y="21.209" class="d">{</text><text x="8.016" y="23.38" class="d">&quot;temperature&quot;:</text><text x="23.046" y="23.38" class="d">16.8,</text><text x="8.016" y="25.551" class="d">&quot;feelsLike&quot;:</text><text x="21.042" y="25.551" class="d">18.6,</text><text x="8.016" y="27.722" class="d">&quot;humidity&quot;:</text><text x="20.04" y="27.722" class="d">98,</text><text x="8.016" y="29.893" class="d">&quot;weatherCode&quot;:</text><text x="23.046" y="29.893" class="d">2,</text><text x="8.016" y="32.064" class="d">&quot;description&quot;:</text><text x="23.046" y="32.064" class="d">&quot;Partly</text><text x="31.062" y="32.064" class="d">cloudy&quot;,</text><text x="8.016" y="34.235" class="d">&quot;icon&quot;:</text><text x="16.032" y="34.235" class="d">&quot;\u26c5&quot;,</text></svg><svg x="2400"><use xlink:href="#a"/><use xlink:href="#b" x="-.004"/></svg><svg x="2480"><use xlink:href="#a"/><use xlink:href="#b" x="-.004" y="39.053"/><text x="2.004" y="3.841" class="d">🇬🇧</text><text x="7.014" y="3.841" class="f">London,</text><text x="15.03" y="3.841" class="f">England</text><text x="22.044" y="3.841" class="d">,</text><text x="24.048" y="3.841" class="d">United</text><text x="31.062" y="3.841" class="d">Kingdom</text><text x="2.004" y="8.183" class="f">32°</text><text x="7.014" y="8.183" class="h">·</text><text x="10.02" y="8.183" class="h">Clear</text><text x="16.032" y="8.183" class="h">sky</text><text x="21.042" y="8.183" class="i">Feels</text><text x="27.054" y="8.183" class="i">like</text><text x="32.064" y="8.183" class="i">31°</text><text x="2.004" y="12.525" class="i">──</text><text x="6.012" y="12.525" class="i">1-Day</text><text x="12.024" y="12.525" class="i">Forecast</text><text x="22.044" y="12.525" class="i">─────────────────────────────────</text><text x="2.004" y="14.696" class="g">Mon</text><text x="6.012" y="14.696" class="g">25</text><text x="10.02" y="14.696" class="g">34°</text><text x="13.026" y="14.696" class="d">/</text><text x="14.028" y="14.696" class="j">20°</text><text x="19.038" y="14.696" class="h">←</text><text x="21.042" y="14.696" class="h">16</text><text x="24.048" y="14.696" class="h">km/h</text><use xlink:href="#7" y="17.368"/><text x="2.004" y="21.209" class="i">Humidity</text><text x="12.024" y="21.209" class="g">33%</text><text x="17.034" y="21.209" class="i">Wind</text><text x="27.054" y="21.209" class="h">↖</text><text x="29.058" y="21.209" class="g">13</text><text x="32.064" y="21.209" class="g">km/h</text><text x="2.004" y="23.38" class="i">Cloud</text><text x="12.024" y="23.38" class="g">0%</text><text x="16.032" y="23.38" class="i">Gusts</text><text x="26.052" y="23.38" class="h">↖</text><text x="28.056" y="23.38" class="g">31</text><text x="31.062" y="23.38" class="g">km/h</text><text x="2.004" y="25.551" class="i">Pressure</text><text x="12.024" y="25.551" class="g">1029</text><text x="17.034" y="25.551" class="g">hPa</text><text x="22.044" y="25.551" class="i">UV</text><text x="25.05" y="25.551" class="i">Index</text><text x="32.064" y="25.551" class="g">0.1</text><text x="2.004" y="27.722" class="i">Precip</text><text x="12.024" y="27.722" class="d">💧</text><text x="15.03" y="27.722" class="g">0</text><text x="18.036" y="27.722" class="i">Sunrise</text><text x="28.056" y="27.722" class="g">04:55</text><text x="14.028" y="29.893" class="i">Sunset</text><text x="24.048" y="29.893" class="g">20:59</text><use xlink:href="#8" y="32.565"/><text x="2.004" y="36.406" class="i">Updated</text><text x="10.02" y="36.406" class="i">19:15</text><text x="16.032" y="36.406" class="i">·</text><text x="18.036" y="36.406" class="i">0.4ms</text><text x="24.048" y="36.406" class="i">·</text><text x="26.052" y="36.406" class="i">data</text><text x="31.062" y="36.406" class="i">from</text><text x="36.072" y="36.406" class="i">Open-Meteo</text></svg><svg x="2560"><use xlink:href="#a"/><use xlink:href="#b" x="-.004"/></svg><svg x="2640"><use xlink:href="#a"/><use xlink:href="#b" x="-.004" y="2.146"/><text y="1.67" class="d">Tokyo:</text><text x="7.014" y="1.67" class="d">⛅</text><text x="9.018" y="1.67" class="d">17°</text></svg></svg></g></g></svg></svg>